# xmcd
#
# Track frame offsets: 
#        150
#        14780
#        28680
#        40655
#        52882
#        63775
#        75250
#        88415
#        101685
#        116550
#        129815
#        141372
#        152757
#        163722
#        176525
#        189832
#        203817
#        219080
#        229590
#        240375
#        253080
#        264442
#
# Disc length: 3690 seconds
#
# Revision: 0
# Processed by: cddbd v1.5.2PL0 Copyright (c) Steve Scherf et al.
# Submitted via: ExactAudioCopy v0.99pb3
#
DISCID=1a0e6816
DTITLE=Glen Campbell - The Glen Campbell Collection
DYEAR=1999
DGENRE=Country
TTITLE0=Rhinestone Cowboy
TTITLE1=Wichita Lineman
TTITLE2=Galveston
TTITLE3=By The Time I Get To Phoenix
TTITLE4=Try A Little Kindness
TTITLE5=Hey Little One
TTITLE6=Where's The Playground Susie
TTITLE7=Gentle On My Mind
TTITLE8=Your Cheatin' Heart
TTITLE9=Honey Come Back
TTITLE10=All I Have To Do Is Dream (With Bobby Gentry)
TTITLE11=Dream Baby (How Long Must I Dream
TTITLE12=It's Only Make Believe
TTITLE13=Sunflower
TTITLE14=Southern Nights
TTITLE15=Country Boy (You Got Your Feet In L.A.)
TTITLE16=Bridge Over Troubled Water
TTITLE17=Help Me Make It Through The Night
TTITLE18=Reason To Believe
TTITLE19=Rose Garden
TTITLE20=Everything A Man Could Ever Need
TTITLE21=Cold Cold Heart
EXTD=
EXTT0=
EXTT1=
EXTT2=
EXTT3=
EXTT4=
EXTT5=
EXTT6=
EXTT7=
EXTT8=
EXTT9=
EXTT10=
EXTT11=
EXTT12=
EXTT13=
EXTT14=
EXTT15=
EXTT16=
EXTT17=
EXTT18=
EXTT19=
EXTT20=
EXTT21=
PLAYORDER=
